<?xml version="1.0" standalone="no"?>
<!DOCTYPE svg PUBLIC "-//W3C//DTD SVG 20010904//EN"
 "http://www.w3.org/TR/2001/REC-SVG-20010904/DTD/svg10.dtd">
<svg version="1.0" xmlns="http://www.w3.org/2000/svg"
 width="512.000000pt" height="512.000000pt" viewBox="0 0 512.000000 512.000000"
 preserveAspectRatio="xMidYMid meet">

<g transform="translate(0.000000,512.000000) scale(0.100000,-0.100000)"
fill="#000000" stroke="none">
<path d="M2525 4469 c-11 -6 -87 -87 -170 -180 -82 -93 -162 -181 -177 -195
l-26 -26 -245 81 c-134 45 -256 81 -270 81 -63 0 -65 -7 -163 -486 l-16 -82
-82 -16 c-479 -98 -486 -100 -486 -163 0 -14 37 -136 81 -272 l82 -246 -74
-67 c-41 -38 -129 -117 -196 -176 -134 -119 -154 -147 -132 -192 8 -16 91 -97
184 -180 94 -83 181 -162 193 -175 l24 -22 -81 -248 c-45 -135 -81 -256 -81
-267 0 -26 17 -55 39 -67 10 -6 83 -24 162 -40 79 -16 191 -39 249 -51 58 -12
108 -25 112 -29 4 -4 28 -103 52 -221 62 -299 62 -299 82 -321 10 -11 30 -19
50 -19 25 0 400 116 510 157 6 2 92 -86 190 -197 98 -110 189 -203 201 -206
47 -12 72 7 228 183 87 98 168 188 179 200 l21 23 245 -80 c135 -44 259 -80
276 -80 52 0 69 30 98 175 15 72 39 188 54 260 l28 130 261 55 c282 59 303 68
303 124 0 17 -36 141 -80 276 l-79 245 22 21 c12 11 102 92 200 179 176 156
195 181 183 227 -3 13 -96 104 -206 202 -111 98 -199 184 -197 190 41 110 157
485 157 510 0 20 -8 40 -20 51 -16 15 -300 82 -503 119 -21 4 -40 12 -41 19
-2 7 -9 31 -15 55 -15 55 -48 73 -86 48 -30 -20 -32 -53 -10 -136 17 -64 29
-75 99 -90 77 -17 334 -71 396 -84 46 -9 54 -14 52 -31 -2 -11 -37 -123 -79
-248 -49 -150 -73 -237 -69 -252 4 -14 71 -83 158 -162 84 -76 172 -156 195
-178 l42 -40 -195 -173 c-113 -102 -196 -183 -200 -197 -4 -15 23 -112 75
-271 44 -136 79 -249 78 -250 -1 -1 -114 -25 -252 -54 -201 -41 -254 -55 -272
-73 -22 -22 -27 -45 -99 -395 -17 -80 -32 -131 -38 -129 -130 48 -494 157
-511 153 -17 -4 -256 -259 -365 -389 -4 -4 -85 78 -180 183 -95 105 -184 197
-197 203 -21 10 -60 0 -271 -71 -136 -45 -249 -78 -253 -74 -4 4 -19 66 -34
137 -49 244 -75 356 -85 375 -6 11 -27 24 -48 30 -35 9 -468 100 -478 100 -12
0 3 53 72 261 41 126 74 241 72 256 -2 21 -47 67 -193 199 -104 94 -191 176
-192 181 -2 5 72 77 164 159 224 199 223 198 223 230 0 15 -34 131 -76 258
-42 127 -77 235 -78 240 -1 10 7 13 219 56 252 52 295 63 309 79 8 9 35 115
60 236 61 291 61 290 72 289 5 -1 113 -36 240 -78 127 -42 243 -76 258 -76 31
0 26 -5 225 218 85 95 159 171 164 169 5 -1 87 -88 181 -192 131 -145 178
-191 199 -193 14 -2 130 31 257 72 127 42 237 76 245 76 9 0 17 -20 25 -57 19
-102 35 -122 85 -109 43 11 47 34 24 142 -11 53 -24 105 -30 115 -11 22 -41
39 -67 39 -10 0 -129 -36 -263 -80 -134 -44 -247 -80 -250 -80 -4 0 -241 259
-339 371 -28 32 -74 44 -105 28z"/>
<path d="M2420 3779 c-498 -56 -923 -428 -1050 -919 -57 -221 -47 -464 26
-693 17 -52 43 -72 80 -63 40 10 46 46 23 121 -177 575 131 1186 696 1383 241
84 501 83 741 -3 375 -134 650 -460 719 -851 53 -305 -21 -619 -206 -864 -447
-593 -1340 -589 -1782 7 -55 74 -64 83 -94 83 -34 0 -53 -21 -53 -58 0 -31
108 -169 201 -257 315 -297 750 -405 1169 -289 194 54 364 151 514 294 362
345 479 848 307 1319 -191 522 -731 853 -1291 790z"/>
<path d="M2124 2876 c-16 -13 -19 -27 -19 -111 0 -90 2 -98 24 -116 26 -21 58
-18 79 9 7 10 12 49 12 107 0 76 -3 95 -18 108 -23 21 -52 22 -78 3z"/>
<path d="M2916 2868 c-12 -16 -16 -47 -16 -109 0 -83 1 -89 26 -108 34 -27 40
-26 69 4 23 22 25 32 25 107 0 97 -14 128 -60 128 -18 0 -34 -8 -44 -22z"/>
<path d="M2264 2224 c-32 -31 -28 -57 21 -131 143 -218 462 -194 578 43 24 50
17 91 -18 104 -34 12 -61 -6 -94 -64 -39 -70 -95 -108 -169 -114 -91 -8 -185
46 -218 125 -13 30 -48 63 -67 63 -4 0 -19 -11 -33 -26z"/>
</g>
</svg>
